<?xml version="1.0" standalone="no"?><svg xmlns="http://www.w3.org/2000/svg" viewBox="0 0 1440 320"><path fill="#0099ff" fill-opacity="0.6" d="M0,288L24,277.3C48,267,96,245,144,245.3C192,245,240,267,288,266.7C336,267,384,245,432,229.3C480,213,528,203,576,202.7C624,203,672,213,720,197.3C768,181,816,139,864,133.3C912,128,960,160,1008,149.3C1056,139,1104,85,1152,85.3C1200,85,1248,139,1296,154.7C1344,171,1392,149,1416,138.7L1440,128L1440,320L1416,320C1392,320,1344,320,1296,320C1248,320,1200,320,1152,320C1104,320,1056,320,1008,320C960,320,912,320,864,320C816,320,768,320,720,320C672,320,624,320,576,320C528,320,480,320,432,320C384,320,336,320,288,320C240,320,192,320,144,320C96,320,48,320,24,320L0,320Z"></path></svg>